<?xml version="1.0" standalone="no"?>
<!DOCTYPE svg PUBLIC "-//W3C//DTD SVG 20010904//EN"
 "http://www.w3.org/TR/2001/REC-SVG-20010904/DTD/svg10.dtd">
<svg version="1.0" xmlns="http://www.w3.org/2000/svg"
 width="600.000000pt" height="194.000000pt" viewBox="0 0 600.000000 194.000000"
 preserveAspectRatio="xMidYMid meet">

<g transform="translate(0.000000,194.000000) scale(0.100000,-0.100000)"
fill="#000000" stroke="none">
<path d="M2360 1919 c-79 -24 -132 -110 -132 -214 0 -99 43 -166 156 -243 90
-61 108 -87 108 -149 0 -28 -3 -59 -6 -70 -6 -18 -44 -43 -66 -43 -21 0 -52
63 -58 122 -7 60 -8 63 -36 66 -16 2 -44 1 -63 -3 l-33 -6 0 -67 c1 -154 97
-240 244 -218 60 9 105 42 132 96 19 36 23 61 24 131 0 86 0 87 -39 136 -22
27 -71 71 -109 98 -38 27 -79 63 -91 80 -36 53 -25 145 21 174 18 11 25 10 47
-7 21 -15 27 -31 34 -83 10 -80 19 -90 74 -87 72 3 76 11 64 101 -13 95 -30
130 -79 161 -43 29 -138 41 -192 25z m161 -86 c50 -53 69 -90 69 -131 -1 -26
-1 -26 -15 -8 -8 11 -15 30 -15 43 0 14 -18 42 -41 68 -37 40 -46 45 -85 45
-46 0 -97 -33 -109 -70 -7 -22 -25 -27 -25 -7 0 7 23 34 50 60 42 39 57 47 88
47 32 0 45 -7 83 -47z m-211 -138 c0 -65 39 -113 156 -194 38 -26 79 -61 90
-79 29 -42 37 -106 23 -170 -24 -113 -126 -145 -227 -72 -49 35 -72 76 -72
125 0 44 16 46 23 3 17 -103 69 -152 151 -145 64 6 91 34 99 109 12 103 -15
150 -148 251 -85 64 -115 106 -115 158 0 22 5 39 10 39 6 0 10 -11 10 -25z"/>
<path d="M3084 1912 c-30 -4 -31 -23 -33 -372 -2 -333 0 -324 -76 -322 -77 1
-75 -7 -75 352 1 173 1 321 0 328 0 9 -16 12 -57 10 l-58 -3 -3 -325 c-1 -179
0 -340 3 -358 7 -40 59 -101 102 -118 44 -19 124 -17 175 2 57 23 96 60 108
105 6 22 9 170 8 365 l-3 329 -35 5 c-19 3 -45 4 -56 2z m-224 -212 c0 -100
-4 -160 -10 -160 -6 0 -10 60 -10 160 0 100 4 160 10 160 6 0 10 -60 10 -160z
m269 3 c1 -29 -3 -53 -9 -53 -8 0 -12 52 -12 155 0 91 19 -2 21 -102z m1 -128
c0 -14 -4 -25 -9 -25 -12 0 -19 21 -13 38 8 21 22 13 22 -13z m0 -109 c0 -49
-12 -106 -20 -101 -5 3 -8 36 -8 74 0 55 3 68 14 64 8 -3 14 -19 14 -37z
m-270 19 c0 -8 -4 -15 -10 -15 -5 0 -10 7 -10 15 0 8 5 15 10 15 6 0 10 -7 10
-15z m0 -76 c0 -11 -4 -17 -10 -14 -5 3 -10 13 -10 21 0 8 5 14 10 14 6 0 10
-9 10 -21z m0 -82 c1 -116 38 -167 120 -167 55 0 96 15 105 39 4 9 9 46 12 83
3 37 9 65 13 63 4 -3 6 -35 3 -72 -4 -61 -8 -71 -39 -100 -29 -28 -41 -33 -82
-33 -59 0 -109 16 -121 39 -5 9 -12 39 -15 66 -17 133 -18 137 -7 130 6 -3 11
-25 11 -48z"/>
<path d="M3415 1912 l-50 -7 -3 -389 c-1 -279 1 -393 9 -402 14 -16 62 -18 90
-4 16 9 19 22 19 93 0 45 3 112 7 150 l6 67 51 0 c71 0 121 16 160 51 49 42
67 96 69 204 1 78 -2 96 -21 127 -34 55 -98 108 -130 108 -15 0 -56 2 -92 4
-36 2 -87 1 -115 -2z m219 -66 c47 -19 44 -29 -5 -16 -37 10 -91 14 -156 11
l-43 -1 7 -75 c5 -66 4 -75 -11 -75 -13 0 -16 12 -16 74 0 85 6 93 70 99 66 6
110 2 154 -17z m71 -56 c3 -5 1 -10 -4 -10 -6 0 -11 5 -11 10 0 6 2 10 4 10 3
0 8 -4 11 -10z m-77 -40 c21 -30 23 -43 19 -99 -6 -81 -24 -101 -95 -104 -38
-1 -56 2 -63 13 -10 15 -4 204 7 222 3 5 29 8 57 6 46 -3 54 -7 75 -38z m97
-113 c-8 -83 -36 -144 -75 -165 -18 -10 -52 -12 -122 -8 l-98 5 0 -34 c0 -19
-4 -37 -10 -40 -15 -9 -12 72 3 82 6 4 56 8 110 8 98 0 99 0 127 31 21 24 31
50 40 105 14 88 19 104 26 96 3 -3 3 -39 -1 -80z m-285 -13 c0 -14 -4 -23 -10
-19 -5 3 -10 15 -10 26 0 10 5 19 10 19 6 0 10 -12 10 -26z m0 -88 c0 -8 -4
-18 -10 -21 -5 -3 -10 3 -10 14 0 12 5 21 10 21 6 0 10 -6 10 -14z m0 -286 c0
-123 -19 -156 -22 -37 -1 39 -3 86 -3 102 -2 34 2 45 16 45 5 0 9 -48 9 -110z"/>
<path d="M3513 1768 c-9 -16 -14 -154 -7 -185 12 -47 24 -9 24 75 0 81 14 135
27 105 6 -16 33 -17 33 -2 0 5 -4 8 -9 4 -5 -3 -12 -1 -16 5 -9 14 -42 13 -52
-2z"/>
<path d="M4000 1910 l-95 -5 -3 -387 c-2 -341 0 -388 14 -402 12 -13 40 -16
143 -16 154 0 164 4 159 75 l-3 50 -92 3 -93 3 0 83 c0 96 0 96 89 96 31 0 62
5 69 12 7 7 12 34 12 60 0 54 4 52 -109 53 -53 0 -55 1 -61 30 -3 17 -4 71 -2
122 4 104 3 103 104 103 82 0 88 4 88 61 0 31 -5 51 -12 54 -24 8 -113 10
-208 5z m55 -55 c0 -5 -17 -8 -38 -7 l-37 4 2 -184 3 -183 33 1 c21 1 32 -2
29 -10 -2 -6 -17 -11 -33 -11 l-29 -1 -3 -126 c-3 -166 1 -172 117 -170 50 2
81 -1 81 -8 0 -6 -38 -10 -99 -10 -84 0 -100 3 -105 17 -9 23 -20 668 -12 689
4 11 17 14 48 12 24 -2 43 -7 43 -13z m125 5 c0 -5 -21 -10 -47 -9 -36 0 -43
3 -28 9 28 12 75 12 75 0z m-30 -390 c-20 -13 -50 -13 -50 0 0 6 15 10 33 10
24 0 28 -3 17 -10z"/>
<path d="M4430 1912 l-45 -7 -3 -387 c-3 -428 -4 -418 61 -418 55 0 56 5 60
158 3 92 8 147 16 155 6 6 30 11 53 11 69 -2 78 -22 78 -175 0 -117 2 -129 19
-139 25 -13 67 -13 91 0 17 9 18 21 13 162 -4 123 -8 155 -21 165 -14 12 -14
16 1 48 28 58 39 156 27 247 -18 145 -55 178 -208 183 -53 2 -117 0 -142 -3z
m247 -66 c33 -17 46 -43 63 -126 10 -48 9 -62 -9 -113 -11 -32 -29 -69 -40
-84 l-21 -25 25 -30 c14 -16 24 -39 24 -51 -2 -22 -2 -22 -6 0 -7 37 -55 64
-100 58 -21 -3 -62 -7 -92 -9 -31 -2 -57 -9 -62 -17 -6 -11 -9 -10 -15 4 -3
10 -5 20 -2 22 2 2 47 7 99 11 53 4 102 12 111 18 19 14 53 81 63 124 10 47
-5 159 -24 183 -21 27 -168 48 -207 31 l-24 -12 0 -166 c0 -92 -3 -164 -7
-160 -11 10 -12 317 -2 338 5 9 19 19 31 22 42 9 165 -2 195 -18z m-41 -77
c15 -17 19 -37 19 -104 0 -106 -7 -115 -93 -115 l-65 0 8 113 c4 61 9 115 12
120 2 4 26 7 52 7 36 0 53 -5 67 -21z m-179 -551 c-1 -40 -3 -8 -3 72 0 80 2
112 3 73 2 -40 2 -106 0 -145z m266 95 c11 -112 9 -175 -5 -171 -9 3 -14 39
-16 121 -3 127 11 159 21 50z"/>
<path d="M4530 1665 c0 -130 18 -141 22 -12 l3 92 33 3 c45 4 30 22 -19 22
l-39 0 0 -105z"/>
<path d="M2920 1572 c0 -293 2 -332 21 -332 15 0 7 622 -8 628 -10 3 -13 -61
-13 -296z"/>
<path d="M3199 1543 c0 -225 -4 -338 -12 -359 -22 -58 -115 -114 -189 -114
-19 0 -27 -4 -22 -11 12 -19 110 -3 160 26 85 50 84 42 84 438 0 225 -4 347
-10 347 -6 0 -10 -116 -11 -327z"/>
<path d="M4240 1838 c0 -55 -11 -63 -102 -68 l-83 -5 -3 -107 c-2 -70 1 -108
8 -108 6 0 10 34 10 88 0 48 4 92 8 98 4 6 41 13 83 16 42 3 81 8 87 12 15 9
16 106 2 106 -5 0 -10 -15 -10 -32z"/>
<path d="M2406 1778 c-18 -25 -22 -118 -6 -118 6 0 10 11 10 25 0 14 9 43 20
65 24 47 24 50 6 50 -8 0 -22 -10 -30 -22z"/>
<path d="M4797 1770 c14 -60 7 -221 -11 -264 -21 -51 -22 -73 -1 -56 46 38 60
258 22 325 l-18 30 8 -35z"/>
<path d="M561 1764 c-132 -36 -245 -131 -306 -257 -19 -41 -35 -83 -35 -93 0
-10 -16 -30 -35 -42 -104 -71 -138 -222 -72 -321 15 -22 108 -114 207 -202 99
-89 179 -163 178 -165 -5 -4 -201 -13 -296 -14 l-93 0 3 -32 3 -33 241 -3 240
-2 150 -136 c82 -74 175 -153 206 -176 32 -23 57 -43 55 -44 -3 -2 -329 -14
-405 -14 l-63 0 3 -32 3 -33 605 -3 c415 -2 617 1 643 8 152 44 182 246 60
407 -36 47 -109 90 -210 124 -72 24 -98 38 -131 72 -42 43 -38 34 -250 577
-64 165 -106 195 -261 184 -87 -6 -101 -4 -138 15 -56 28 -93 75 -123 158
l-25 68 -50 2 c-28 1 -74 -4 -104 -13z m120 -116 c30 -81 96 -149 168 -175 38
-13 50 -22 45 -33 -20 -45 -34 -119 -29 -150 9 -46 24 -75 201 -376 85 -144
154 -266 154 -271 0 -10 -130 -73 -149 -73 -6 0 -49 37 -96 82 -71 67 -90 80
-103 71 -34 -21 -25 -44 45 -115 106 -108 212 -178 345 -228 112 -41 180 -52
378 -57 107 -3 198 -8 203 -12 4 -4 -9 -23 -29 -42 l-35 -34 -167 -3 c-319 -7
-473 19 -597 102 -27 18 -129 105 -225 192 -97 88 -211 191 -255 229 -92 80
-200 180 -297 272 -78 74 -96 116 -78 183 11 42 63 110 84 110 7 0 99 -94 205
-210 106 -116 196 -210 200 -210 15 1 41 29 41 43 0 15 -123 156 -142 165 -14
6 -8 28 22 83 16 30 35 78 41 108 20 98 -18 221 -97 307 -19 20 -34 40 -34 43
0 9 117 50 171 60 4 0 17 -27 30 -61z m-231 -84 c39 -33 78 -110 86 -168 7
-52 -9 -129 -37 -175 l-19 -32 -83 86 c-45 48 -86 97 -91 110 -7 17 -3 38 13
77 22 54 74 128 91 128 5 0 23 -12 40 -26z m655 -108 c25 -11 41 -28 57 -62
22 -45 22 -47 4 -58 -50 -30 -61 -44 -50 -63 12 -18 45 -22 76 -9 13 6 20 -1
33 -30 30 -72 29 -78 -9 -97 -39 -18 -44 -32 -22 -62 13 -18 17 -18 51 -6 20
7 38 11 40 9 4 -3 45 -107 45 -112 0 -2 -11 -7 -24 -10 -29 -7 -40 -31 -25
-57 8 -15 19 -19 45 -17 34 3 35 2 63 -63 l28 -66 -57 -36 c-31 -20 -61 -37
-67 -37 -5 0 -15 11 -21 25 -6 14 -74 132 -150 262 -171 292 -182 314 -182
355 0 46 38 107 80 129 42 23 42 23 85 5z m420 -788 c28 -14 70 -31 95 -38 62
-17 130 -53 162 -87 27 -28 67 -106 68 -130 0 -22 -345 -17 -452 7 -86 19
-238 81 -238 97 1 4 41 28 90 52 49 24 118 63 152 87 35 23 65 42 68 41 3 -1
28 -14 55 -29z"/>
<path d="M746 841 c-14 -15 -15 -24 -6 -40 14 -26 32 -27 55 -1 17 19 17 21 0
40 -22 25 -28 25 -49 1z"/>
<path d="M2657 1707 c6 -76 6 -76 -21 -87 -15 -5 -39 -10 -54 -10 -19 0 -23
-3 -15 -11 7 -7 28 -8 56 -4 55 8 62 22 52 104 -10 89 -25 96 -18 8z"/>
<path d="M3793 1663 c-2 -73 -7 -105 -23 -139 -41 -83 -111 -124 -212 -124
-27 0 -49 -3 -49 -7 -1 -5 -4 -73 -8 -153 l-6 -144 -40 -12 -40 -12 47 -1 c37
-1 50 3 58 18 5 11 10 80 10 154 l0 134 72 7 c101 9 152 40 187 115 22 47 26
70 26 141 0 124 -19 145 -22 23z"/>
<path d="M4220 1465 c0 -66 -11 -75 -95 -75 l-75 0 0 -70 c0 -40 4 -70 10 -70
6 0 10 21 10 46 0 75 10 85 86 82 49 -2 67 1 74 12 13 20 13 97 0 105 -6 4
-10 -8 -10 -30z"/>
<path d="M4794 1258 c4 -90 3 -159 -2 -162 -5 -3 -24 -7 -41 -8 -56 -4 -46
-19 11 -16 l53 3 -2 159 c-1 106 -6 163 -14 170 -9 8 -10 -26 -5 -146z"/>
<path d="M2656 1344 c9 -84 -16 -166 -65 -215 -40 -40 -89 -58 -166 -60 l-50
-2 45 -8 c55 -9 126 -2 160 18 65 38 108 152 94 253 -10 71 -24 83 -18 14z"/>
<path d="M4530 1258 c0 -79 -4 -148 -8 -154 -4 -6 -25 -16 -47 -22 l-40 -11
55 2 55 2 3 144 c1 82 7 150 13 157 6 7 20 15 32 17 12 2 3 5 -20 6 l-43 1 0
-142z"/>
<path d="M2384 1328 c3 -13 6 -33 6 -45 0 -13 5 -23 10 -23 11 0 14 49 4 74
-9 25 -27 19 -20 -6z"/>
<path d="M4248 1184 c-5 -4 -8 -22 -8 -40 0 -54 -25 -64 -165 -65 -76 0 -113
-4 -100 -9 42 -18 260 -8 281 13 3 3 4 28 2 57 -2 28 -6 48 -10 44z"/>
<path d="M2360 878 c-80 -22 -132 -108 -133 -220 -1 -64 2 -72 40 -126 26 -37
66 -75 113 -107 98 -68 112 -88 111 -161 0 -51 -4 -62 -27 -82 -14 -13 -33
-22 -42 -20 -30 6 -55 55 -61 120 -7 71 -12 75 -87 63 l-44 -6 0 -67 c1 -154
93 -237 240 -217 93 13 146 73 161 184 16 115 -21 183 -150 277 -99 73 -124
107 -115 159 11 68 31 95 70 95 34 0 51 -30 59 -103 6 -59 9 -68 30 -73 26 -7
87 0 105 11 13 8 6 103 -13 168 -25 90 -142 138 -257 105z m159 -80 c45 -45
71 -94 71 -135 0 -35 -18 -19 -26 24 -4 22 -23 54 -47 80 -35 38 -45 43 -83
43 -46 0 -97 -33 -109 -70 -7 -22 -25 -27 -25 -7 0 7 23 34 51 60 69 64 107
65 168 5z m-209 -143 c0 -64 44 -118 157 -195 78 -52 98 -77 113 -139 25 -104
-20 -203 -98 -217 -96 -18 -202 65 -202 159 0 54 15 45 29 -17 14 -64 38 -98
81 -116 40 -16 107 -7 133 18 40 41 42 168 3 227 -9 13 -59 59 -112 101 -52
42 -102 90 -110 105 -16 32 -19 99 -4 99 6 0 10 -11 10 -25z"/>
<path d="M3474 873 l-71 -4 -7 -46 c-3 -25 -6 -203 -6 -394 0 -348 0 -348 22
-360 26 -14 274 -7 289 8 12 12 15 86 5 102 -4 7 -43 11 -97 11 l-89 0 0 74
c0 106 0 106 80 106 42 0 71 5 77 13 6 6 11 33 12 60 1 53 8 49 -99 51 l-65 1
-3 114 c-2 75 1 118 9 127 8 9 34 14 79 14 95 0 100 3 100 60 0 27 -5 52 -10
55 -14 9 -138 13 -226 8z m185 -64 c-8 -5 -23 -7 -34 -4 -11 2 -31 5 -45 6
-14 0 0 6 30 12 53 12 77 4 49 -14z m-120 7 c10 -12 6 -13 -29 -9 l-40 6 0
-188 0 -187 35 6 c22 4 35 3 35 -3 0 -13 -45 -25 -58 -17 -6 3 -10 -47 -11
-124 -1 -166 2 -170 119 -170 47 0 80 -4 80 -10 0 -13 -180 -13 -200 0 -13 8
-15 60 -18 346 -1 186 0 344 2 351 7 17 70 17 85 -1z m106 -386 c-3 -5 -18 -7
-33 -6 -39 5 -40 8 -7 15 33 8 48 4 40 -9z"/>
<path d="M4803 863 c-22 -17 -67 -95 -147 -250 -21 -40 -42 -73 -47 -73 -5 0
-10 73 -11 163 l-3 162 -49 3 c-27 2 -53 -1 -58 -6 -4 -4 -9 -183 -9 -397 0
-312 2 -390 13 -396 16 -11 79 -11 94 -1 6 4 14 52 18 106 7 97 29 176 48 176
5 0 36 -57 69 -128 34 -70 68 -135 76 -144 19 -21 81 -24 107 -5 17 13 17 17
-10 83 -15 38 -56 128 -91 199 -47 95 -63 137 -59 157 3 15 28 67 55 115 84
151 116 222 105 233 -21 21 -78 23 -101 3z m-243 -113 c0 -38 -4 -72 -10 -75
-6 -4 -10 23 -10 75 0 52 4 79 10 75 6 -3 10 -37 10 -75z m228 -43 c-31 -61
-70 -142 -87 -178 l-32 -66 66 -128 c36 -70 65 -133 65 -141 0 -7 9 -28 20
-46 22 -37 26 -53 9 -42 -7 4 -27 41 -46 83 -91 203 -100 214 -159 214 -69 0
-74 -11 -76 -177 l-1 -141 -9 175 c-8 173 -2 380 11 380 6 0 5 -74 -2 -196 -2
-38 0 -41 18 -33 11 4 31 10 45 13 20 5 36 30 87 134 34 70 74 154 88 187 29
65 45 89 53 80 3 -3 -20 -56 -50 -118z"/>
<path d="M4650 420 c0 -5 5 -10 10 -10 6 0 10 5 10 10 0 6 -4 10 -10 10 -5 0
-10 -4 -10 -10z"/>
<path d="M5163 872 l-103 -3 0 -393 c0 -340 2 -395 15 -406 22 -18 284 -8 296
11 5 8 8 34 7 59 l-3 45 -95 5 -95 5 4 80 c1 44 5 83 8 88 2 4 35 7 72 7 77 0
88 7 89 60 2 58 -8 65 -87 63 -51 -1 -73 3 -82 13 -17 20 -5 224 13 235 7 5
45 9 84 9 84 0 97 10 92 72 l-3 43 -55 5 c-30 3 -101 4 -157 2z m26 -43 c43
-15 39 -25 -9 -21 l-40 4 0 -181 0 -181 36 0 c24 0 34 -4 31 -12 -2 -7 -18
-12 -36 -12 l-31 2 0 -132 c0 -72 5 -138 10 -146 7 -11 33 -16 100 -18 49 -2
90 -8 90 -13 0 -11 -180 -12 -196 -1 -6 4 -13 15 -17 25 -5 14 -10 462 -7 654
0 21 6 33 18 36 9 3 17 5 18 6 1 0 15 -4 33 -10z m149 -7 c2 -8 -11 -12 -42
-12 -54 0 -58 6 -13 19 37 11 49 9 55 -7z m-18 -382 c0 -13 -46 -24 -62 -14
-9 6 -4 11 17 15 45 10 45 10 45 -1z"/>
<path d="M5590 871 l-45 -6 -3 -393 -2 -392 24 -11 c14 -7 40 -9 60 -5 l36 7
0 132 c0 178 0 177 64 177 29 0 57 -5 64 -12 8 -8 12 -52 12 -132 0 -164 13
-187 96 -171 l34 6 0 152 c0 123 -3 157 -16 175 -14 21 -14 26 3 70 14 36 18
75 18 162 0 137 -5 158 -46 198 -48 47 -154 62 -299 43z m185 -51 c75 -12 94
-31 115 -116 16 -64 16 -70 0 -125 -10 -32 -28 -74 -39 -93 -14 -22 -18 -37
-11 -41 5 -3 15 -15 21 -26 9 -19 9 -19 -10 -10 -11 6 -23 16 -26 22 -4 6 -24
8 -48 5 -23 -3 -66 -8 -96 -11 -29 -2 -60 -10 -67 -16 -11 -9 -14 -7 -14 8 0
17 9 21 61 27 34 3 80 6 103 6 35 0 44 5 64 34 35 51 53 131 46 200 -9 77 -34
106 -100 117 -77 12 -130 11 -143 -5 -9 -10 -12 -65 -12 -175 1 -89 -2 -161
-7 -161 -13 0 -11 338 2 349 26 21 78 25 161 11z m17 -87 c15 -13 18 -31 18
-100 0 -116 -5 -123 -85 -123 l-65 0 0 104 c0 57 3 111 6 120 9 23 101 22 126
-1z m-172 -488 c0 -74 -4 -135 -9 -135 -5 0 -8 61 -7 135 0 74 4 135 9 135 4
0 7 -61 7 -135z m259 -27 c1 -73 -3 -118 -9 -118 -6 0 -10 52 -9 138 0 86 4
130 9 117 5 -11 9 -73 9 -137z"/>
<path d="M5695 732 c-3 -3 -5 -53 -5 -111 0 -127 18 -128 22 -1 l3 85 35 6
c21 3 29 8 20 11 -24 10 -69 16 -75 10z"/>
<path d="M2786 854 c-3 -9 -6 -188 -6 -400 l0 -384 24 -6 c13 -3 38 -4 57 -2
l34 3 5 212 c3 116 8 214 11 217 3 4 37 -71 74 -166 74 -189 102 -249 119
-260 14 -10 78 -10 93 0 16 10 16 24 15 435 l-2 367 -60 0 -60 0 -1 -192 c0
-106 -4 -201 -8 -212 -5 -14 -16 4 -45 75 -51 125 -74 185 -92 239 -28 81 -38
90 -98 90 -40 0 -55 -4 -60 -16z m379 -272 c-7 -88 -25 -103 -25 -21 0 28 -5
59 -10 70 -8 15 -7 19 3 19 11 0 14 16 12 77 -2 51 1 80 8 85 15 9 21 -113 12
-230z m-282 191 c8 -21 31 -90 51 -153 33 -110 90 -234 125 -273 8 -10 23 -42
31 -70 14 -46 19 -52 43 -52 26 1 27 -1 27 -52 0 -29 -3 -53 -8 -53 -4 0 -31
48 -60 108 -28 59 -71 143 -95 187 -44 83 -87 188 -108 265 -20 73 -28 68 -27
-16 0 -43 -4 -90 -10 -104 -8 -20 -11 5 -11 113 -1 108 2 137 12 137 8 0 21
-17 30 -37z m-26 -380 c-2 -21 -4 -6 -4 32 0 39 2 55 4 38 2 -18 2 -50 0 -70z
m303 5 c0 -38 -3 -49 -10 -38 -16 25 -11 90 7 90 2 0 3 -24 3 -52z m-300 -73
c0 -8 -4 -15 -10 -15 -5 0 -10 7 -10 15 0 8 5 15 10 15 6 0 10 -7 10 -15z
m300 -27 c-1 -30 -3 -38 -9 -28 -8 14 -4 70 5 70 2 0 4 -19 4 -42z m-301 -108
c-2 -58 -7 -89 -13 -87 -6 2 -11 13 -10 25 0 12 1 51 2 87 1 38 6 65 13 65 7
0 9 -31 8 -90z"/>
<path d="M4022 843 c-21 -53 -170 -687 -174 -743 l-3 -35 47 -3 c46 -3 48 -2
68 37 11 22 28 45 38 50 11 6 57 8 103 6 88 -5 109 -16 109 -57 0 -25 41 -42
84 -34 43 8 43 9 10 141 -14 55 -29 118 -34 140 -17 75 -109 460 -118 490 -8
28 -12 30 -64 33 -52 3 -56 1 -66 -25z m93 -54 c4 -6 20 -69 36 -140 15 -71
40 -173 54 -227 33 -119 75 -301 75 -321 0 -28 -19 3 -28 44 l-8 40 -67 3
c-83 4 -89 22 -7 22 33 0 60 4 60 9 0 19 -42 199 -65 281 -23 81 -40 161 -52
243 -6 42 -17 47 -34 15 -7 -13 -14 -18 -16 -11 -11 32 36 69 52 42z m-55
-108 c0 -5 -7 -14 -15 -21 -16 -14 -18 -10 -9 14 6 17 24 22 24 7z m-46 -149
c-35 -112 -71 -241 -78 -284 l-7 -38 76 0 c50 0 74 -4 70 -10 -4 -7 -36 -10
-78 -8 l-72 3 -10 -43 c-6 -24 -15 -42 -20 -40 -12 3 -12 -1 26 158 35 149
100 350 110 344 4 -2 -4 -39 -17 -82z m94 -4 c34 -139 54 -239 48 -245 -12
-12 -114 -12 -131 1 -14 10 -13 20 7 101 39 160 49 195 57 190 5 -2 13 -24 19
-47z"/>
<path d="M4076 488 c-3 -13 -12 -55 -21 -95 -18 -87 -19 -106 -3 -101 13 5 46
138 47 191 1 33 -17 36 -23 5z"/>
<path d="M3239 698 c-1 -267 -9 -623 -14 -635 -2 -7 -22 -16 -45 -19 -22 -4
-40 -11 -40 -17 0 -12 88 -3 102 11 12 12 19 792 6 792 -4 0 -8 -60 -9 -132z"/>
<path d="M3738 817 c-5 -10 -8 -26 -8 -35 -1 -38 -18 -47 -102 -52 l-83 -5 -3
-107 c-2 -70 1 -108 8 -108 6 0 10 35 10 90 0 105 0 105 103 113 38 2 73 9 79
15 5 5 8 31 6 58 -2 34 -5 43 -10 31z"/>
<path d="M4178 815 c5 -11 12 -33 15 -50 13 -66 58 -250 106 -441 62 -245 63
-258 16 -275 -19 -7 -35 -16 -35 -19 0 -12 55 -9 76 5 19 12 21 19 13 52 -5
21 -35 148 -68 283 -33 135 -69 286 -81 336 -12 51 -28 100 -36 110 -15 18
-15 18 -6 -1z"/>
<path d="M4620 721 c0 -61 4 -112 9 -116 12 -7 17 64 13 158 -6 108 -22 77
-22 -42z"/>
<path d="M4882 738 c-135 -251 -136 -254 -105 -279 15 -12 16 -12 10 5 -5 13
18 65 78 175 47 87 85 165 85 174 0 36 -21 13 -68 -75z"/>
<path d="M5400 797 c0 -53 -24 -67 -113 -67 l-77 0 -1 -95 c-1 -52 -2 -102 -3
-110 0 -8 4 -15 9 -15 6 0 12 42 15 97 l5 98 84 6 c54 4 86 11 92 20 12 19 11
99 -1 99 -5 0 -10 -15 -10 -33z"/>
<path d="M2410 740 c-15 -15 -20 -33 -20 -70 0 -27 5 -50 10 -50 6 0 10 11 10
25 0 14 9 43 20 65 11 22 20 42 20 45 0 12 -21 4 -40 -15z"/>
<path d="M2657 673 c6 -82 6 -82 -21 -93 -15 -5 -39 -10 -54 -10 -19 0 -23 -3
-15 -11 8 -8 26 -9 60 -2 l48 9 -2 69 c0 39 -6 81 -11 95 -7 18 -8 3 -5 -57z"/>
<path d="M5955 725 c13 -58 5 -192 -14 -254 -10 -33 -16 -63 -13 -66 14 -14
23 0 43 66 25 84 23 206 -5 255 l-17 29 6 -30z"/>
<path d="M3010 665 c1 -6 7 -21 16 -35 l15 -25 -7 25 c-7 26 -24 52 -24 35z"/>
<path d="M338 453 c-47 -4 -48 -5 -48 -39 l0 -35 148 3 147 3 3 31 c3 30 1 31
-44 38 -47 6 -117 6 -206 -1z"/>
<path d="M3710 431 c0 -16 -4 -41 -10 -56 -9 -24 -13 -26 -73 -23 -34 1 -68
-1 -75 -6 -15 -9 -17 -136 -2 -136 6 0 10 24 10 54 0 69 13 81 80 72 74 -10
90 2 90 69 0 30 -4 55 -10 55 -5 0 -10 -13 -10 -29z"/>
<path d="M5382 427 c-3 -69 -13 -77 -97 -77 l-75 0 0 -76 c0 -47 4 -73 10 -69
6 3 10 31 10 60 0 64 19 81 79 71 46 -7 78 1 83 22 2 10 1 37 -3 62 l-6 45 -1
-38z"/>
<path d="M7 443 c-4 -3 -7 -17 -7 -29 0 -29 24 -36 105 -32 60 3 60 3 63 36
l3 32 -79 0 c-43 0 -82 -3 -85 -7z"/>
<path d="M2931 250 c-1 -96 -5 -180 -9 -187 -4 -6 -24 -14 -45 -18 -49 -9 -48
-25 2 -25 68 0 71 9 70 193 -1 89 -5 173 -9 187 -5 15 -8 -47 -9 -150z"/>
<path d="M5951 217 l-1 -157 -25 -10 c-14 -5 -31 -9 -37 -7 -6 1 -13 -4 -15
-10 -5 -14 34 -16 77 -4 l25 7 -4 149 c-4 206 -20 230 -20 32z"/>
<path d="M2656 304 c16 -157 -74 -274 -213 -274 -18 0 -33 -5 -33 -11 0 -16
133 -3 171 16 37 20 76 81 90 142 11 50 4 149 -12 174 -6 9 -7 -7 -3 -47z"/>
<path d="M5689 308 c-1 -29 -3 -73 -4 -98 -1 -25 -2 -71 -3 -102 l-2 -57 -47
-7 c-42 -6 -45 -8 -23 -16 27 -10 81 -1 92 16 4 6 8 72 8 146 0 74 4 140 8
146 4 7 18 14 32 17 16 3 10 5 -17 6 l-43 1 -1 -52z"/>
<path d="M2388 304 c-8 -8 2 -76 13 -89 5 -5 9 8 9 30 0 41 -11 70 -22 59z"/>
<path d="M4636 293 c-3 -10 -8 -69 -12 -131 l-7 -112 -39 -6 c-27 -5 -36 -10
-29 -17 7 -7 23 -7 48 -1 l38 9 6 90 c3 50 10 111 14 138 5 31 4 47 -3 47 -6
0 -13 -8 -16 -17z"/>
<path d="M85 211 c-3 -10 -3 -26 1 -35 6 -15 24 -16 163 -14 l156 3 3 33 3 32
-160 0 c-147 0 -160 -1 -166 -19z"/>
<path d="M3738 111 c-4 -24 -11 -49 -18 -55 -7 -7 -63 -12 -143 -15 -81 -2
-124 -6 -112 -11 24 -10 165 -12 229 -4 42 6 47 10 55 40 5 19 6 46 2 61 -7
26 -8 25 -13 -16z"/>
<path d="M5400 113 c0 -65 -5 -67 -152 -73 -162 -6 -146 -20 20 -17 142 3 152
8 152 78 0 27 -4 49 -10 49 -5 0 -10 -17 -10 -37z"/>
<path d="M3996 118 c-9 -12 -16 -28 -16 -35 0 -17 -40 -43 -68 -43 -13 0 -21
-4 -17 -10 8 -13 87 -7 93 6 16 43 41 78 52 76 7 -2 20 0 29 4 14 5 13 7 -4
14 -34 14 -53 11 -69 -12z"/>
<path d="M4095 120 c3 -5 21 -10 40 -10 19 0 37 5 40 10 4 6 -12 10 -40 10
-28 0 -44 -4 -40 -10z"/>
<path d="M4920 54 c-14 -8 -35 -14 -47 -14 -12 0 -24 -4 -27 -9 -10 -15 84 -5
100 11 21 21 5 28 -26 12z"/>
</g>
</svg>
